<svg xmlns="http://www.w3.org/2000/svg" xmlns:xlink="http://www.w3.org/1999/xlink" width="755" zoomAndPan="magnify" viewBox="0 0 567 850.499975" height="1133" preserveAspectRatio="xMidYMid meet" version="1.0"><defs><clipPath id="507617f967"><path d="M 25.6875 518 L 470 518 L 470 660.679688 L 25.6875 660.679688 Z M 25.6875 518 " clip-rule="nonzero"/></clipPath><clipPath id="25aab65a60"><path d="M 103 135.988281 L 433 135.988281 L 433 526 L 103 526 Z M 103 135.988281 " clip-rule="nonzero"/></clipPath></defs><path fill="#f4c01e" d="M 444.941406 560 C 442.449219 560.003906 440.078125 560.542969 437.828125 561.613281 C 435.242188 562.632812 432.609375 563.820312 430.167969 564.863281 L 426.515625 566.378906 L 421.773438 568.277344 C 370.367188 589.117188 316.398438 601.332031 266.4375 602.398438 C 264.589844 602.398438 262.765625 602.398438 260.960938 602.398438 C 182.40625 602.398438 118.3125 566 53.628906 530.101562 C 51.5 528.9375 49.222656 528.335938 46.796875 528.296875 C 45.304688 528.292969 43.863281 528.5625 42.472656 529.101562 C 41.082031 529.640625 39.835938 530.417969 38.738281 531.429688 C 37.628906 532.488281 36.777344 533.726562 36.183594 535.140625 C 35.589844 536.554688 35.304688 538.027344 35.320312 539.5625 C 35.347656 540.519531 35.480469 541.460938 35.71875 542.386719 C 35.957031 543.3125 36.296875 544.203125 36.730469 545.054688 C 37.167969 545.90625 37.695312 546.699219 38.308594 547.429688 C 38.921875 548.164062 39.613281 548.820312 40.371094 549.402344 C 101.050781 602.113281 167.585938 651.078125 257.050781 651.101562 L 262.359375 651.101562 C 319.269531 649.820312 383.621094 630.613281 433.558594 599.21875 L 433.867188 599.03125 C 440.582031 595.042969 446.992188 590.617188 453.097656 585.75 C 454.058594 585.082031 454.925781 584.308594 455.707031 583.4375 C 456.488281 582.5625 457.15625 581.613281 457.71875 580.582031 C 458.277344 579.554688 458.710938 578.476562 459.019531 577.347656 C 459.328125 576.214844 459.503906 575.066406 459.546875 573.894531 C 459.523438 572.960938 459.414062 572.035156 459.207031 571.121094 C 459.003906 570.207031 458.710938 569.320312 458.332031 568.464844 C 457.953125 567.609375 457.496094 566.796875 456.957031 566.03125 C 456.417969 565.265625 455.808594 564.558594 455.128906 563.914062 C 454.449219 563.269531 453.714844 562.695312 452.925781 562.195312 C 452.132812 561.695312 451.300781 561.277344 450.425781 560.941406 C 449.550781 560.605469 448.652344 560.359375 447.730469 560.199219 C 446.804688 560.042969 445.875 559.976562 444.941406 560 Z M 444.941406 560 " fill-opacity="1" fill-rule="nonzero"/><g clip-path="url(#507617f967)"><path stroke-linecap="round" transform="matrix(2.371163, 0, 0, 2.371163, -308.496551, -193.602074)" fill="none" stroke-linejoin="round" d="M 317.750398 317.819612 C 316.699358 317.821259 315.699387 318.0486 314.750486 318.499987 C 313.659908 318.929958 312.549561 319.430767 311.519937 319.870623 L 309.97962 320.509813 L 307.979678 321.310449 C 286.299915 330.099319 263.539459 335.250734 242.469233 335.700474 C 241.690013 335.700474 240.920678 335.700474 240.15958 335.700474 C 207.030398 335.700474 179.999885 320.350016 152.720615 305.210424 C 151.822783 304.719499 150.862349 304.4658 149.839315 304.449326 C 149.210009 304.447679 148.602119 304.561349 148.015645 304.78869 C 147.429171 305.016031 146.903651 305.343863 146.440732 305.77054 C 145.972871 306.216985 145.613738 306.73921 145.363334 307.335568 C 145.112929 307.931926 144.992669 308.552996 144.999259 309.200423 C 145.01079 309.604036 145.066802 310.001059 145.167293 310.391492 C 145.267784 310.781926 145.411108 311.157532 145.593969 311.516665 C 145.778478 311.875798 146.000877 312.21022 146.259518 312.518284 C 146.51816 312.827994 146.809749 313.104757 147.129345 313.35022 C 172.720032 335.580214 200.780169 356.230353 238.510534 356.240237 L 240.749349 356.240237 C 264.750296 355.699891 291.889538 347.599633 312.949879 334.359492 L 313.080024 334.280417 C 315.911901 332.598423 318.615282 330.73192 321.190166 328.679262 C 321.595426 328.397557 321.961148 328.071372 322.290628 327.704002 C 322.620108 327.334985 322.901813 326.934667 323.139038 326.499754 C 323.374616 326.066488 323.557477 325.611806 323.687622 325.135708 C 323.817766 324.657962 323.891899 324.173627 323.910021 323.679408 C 323.900136 323.28568 323.854009 322.895246 323.766697 322.509755 C 323.681032 322.124264 323.557477 321.750304 323.39768 321.389524 C 323.237882 321.028744 323.045137 320.686085 322.817796 320.363195 C 322.590455 320.040305 322.33346 319.742126 322.046813 319.470305 C 321.760166 319.198484 321.450455 318.956317 321.11768 318.74545 C 320.783259 318.534583 320.432363 318.358311 320.063345 318.216635 C 319.694328 318.074958 319.315427 317.971172 318.92664 317.903629 C 318.536207 317.837733 318.144126 317.809727 317.750398 317.819612 Z M 317.750398 317.819612 " stroke="#ffffff" stroke-width="8" stroke-opacity="1" stroke-miterlimit="4"/></g><path stroke-linecap="round" transform="matrix(2.371163, 0, 0, 2.371163, -308.496551, -193.602074)" fill-opacity="1" fill="#f4c01e" fill-rule="nonzero" stroke-linejoin="round" d="M 354.220504 303.999586 C 354.227094 303.052332 354.103539 302.121552 353.848192 301.208893 C 353.594493 300.296235 353.217238 299.436293 352.719724 298.630715 L 352.630765 298.50057 L 352.510504 298.360542 C 351.708221 297.512131 350.757673 296.887767 349.660505 296.490744 C 346.719899 295.360629 342.439958 294.759329 337.280306 294.73956 C 333.268891 294.729676 329.301956 295.146467 325.3795 295.989935 L 321.229703 297.090397 L 321.160513 297.090397 L 318.829444 297.950339 C 316.145832 299.059039 313.628607 300.469212 311.279417 302.179211 C 310.884041 302.434558 310.523261 302.732737 310.198724 303.073748 C 309.874186 303.41476 309.594129 303.790367 309.358551 304.197274 C 309.122973 304.605829 308.938464 305.0358 308.805025 305.487187 C 308.671585 305.938574 308.594158 306.399846 308.569447 306.869354 C 308.567799 307.521724 308.706181 308.142793 308.982944 308.732562 C 309.259707 309.322331 309.648493 309.824787 310.149302 310.239932 C 310.602336 310.597417 311.101498 310.869238 311.646787 311.055394 C 312.192076 311.239902 312.753839 311.328862 313.330428 311.320625 C 313.554474 311.325567 313.77852 311.307446 313.999272 311.269556 L 314.360052 311.269556 C 316.359994 310.839585 319.359906 310.549642 322.770021 310.07025 C 325.699095 309.722648 328.639702 309.533198 331.590192 309.50025 C 333.216174 309.460712 334.828977 309.587562 336.430249 309.879151 C 336.873399 309.968111 337.30337 310.10155 337.720162 310.279469 C 337.779468 310.307475 337.837127 310.34207 337.889844 310.37996 C 337.985393 310.770394 338.026578 311.167417 338.010104 311.569382 C 338.010104 313.839497 337.059555 318.060132 335.749873 322.180275 C 334.440191 326.300419 332.889989 330.430446 331.840597 333.179954 C 331.57866 333.852093 331.445221 334.548942 331.440279 335.270503 C 331.433689 335.57033 331.4584 335.868509 331.512764 336.16504 C 331.565481 336.459925 331.649498 336.748219 331.761522 337.02663 C 331.873545 337.306687 332.011926 337.571919 332.178313 337.822323 C 332.343053 338.072728 332.532504 338.305011 332.745018 338.517525 C 332.957533 338.731687 333.188169 338.921138 333.44022 339.085878 C 333.690625 339.252265 333.954209 339.392294 334.234267 339.504317 C 334.512677 339.617987 334.799324 339.702005 335.095856 339.756369 C 335.39074 339.810733 335.688919 339.835444 335.990393 339.830502 C 336.711954 339.81238 337.412098 339.677294 338.087531 339.421947 C 338.762965 339.164953 339.377444 338.80582 339.929323 338.339606 C 350.42984 328.900013 354.070591 313.839497 354.220504 305.340569 Z M 354.220504 303.999586 " stroke="#ffffff" stroke-width="8" stroke-opacity="1" stroke-miterlimit="4"/><path fill="#f4c01e" d="M 303.855469 287.246094 C 289.226562 288.335938 272.34375 289.453125 255.460938 291.679688 C 229.589844 295.09375 203.675781 299.601562 182.335938 309.699219 C 140.71875 326.582031 112.574219 362.578125 112.574219 415.429688 C 112.574219 481.824219 155.253906 515.589844 209.339844 515.589844 C 224.941406 515.648438 240.308594 513.777344 255.4375 509.96875 C 276.777344 503.210938 294.820312 490.835938 316.210938 468.308594 C 328.585938 485.191406 331.976562 493.085938 353.320312 510.988281 C 358.960938 513.21875 364.582031 513.21875 369.0625 509.875 C 382.601562 498.613281 406.21875 478.339844 418.574219 467.195312 C 424.214844 462.6875 423.101562 455.929688 419.6875 450.335938 C 407.359375 434.566406 394.957031 421.074219 394.957031 390.675781 L 394.957031 289.425781 C 394.957031 246.746094 398.324219 207.289062 366.835938 177.984375 C 340.964844 154.269531 300.441406 145.355469 268.953125 145.355469 L 255.4375 145.355469 C 198.078125 148.675781 137.328125 173.453125 123.8125 244.351562 C 121.441406 253.363281 128.320312 256.707031 132.824219 257.820312 L 195.824219 265.691406 C 202.585938 264.578125 205.949219 258.933594 207.066406 253.363281 C 212.707031 228.582031 232.957031 216.207031 255.4375 213.953125 L 259.964844 213.953125 C 273.457031 213.953125 288.089844 219.597656 295.960938 230.835938 C 304.945312 244.351562 303.832031 262.347656 303.832031 278.117188 Z M 291.40625 421.097656 C 290.535156 422.898438 289.570312 424.644531 288.507812 426.339844 C 287.445312 428.03125 286.292969 429.664062 285.050781 431.230469 C 283.808594 432.800781 282.488281 434.292969 281.082031 435.71875 C 279.675781 437.140625 278.195312 438.480469 276.644531 439.742188 C 275.09375 441 273.476562 442.171875 271.792969 443.257812 C 270.113281 444.339844 268.378906 445.328125 266.589844 446.21875 C 264.800781 447.113281 262.96875 447.90625 261.089844 448.597656 C 259.214844 449.289062 257.304688 449.875 255.367188 450.359375 C 253.136719 450.359375 249.769531 451.472656 246.378906 451.472656 C 221.648438 451.472656 206.996094 432.335938 206.996094 404.214844 C 206.996094 368.199219 228.335938 351.339844 255.367188 343.441406 C 271.332031 340.160156 287.464844 338.660156 303.761719 338.9375 L 303.761719 352.476562 C 303.855469 378.324219 304.972656 398.570312 291.40625 421.097656 Z M 291.40625 421.097656 " fill-opacity="1" fill-rule="nonzero"/><g clip-path="url(#25aab65a60)"><path stroke-linecap="round" transform="matrix(2.371163, 0, 0, 2.371163, -308.496551, -193.602074)" fill="none" stroke-linejoin="round" d="M 258.249662 202.790018 C 252.080155 203.249642 244.960099 203.720798 237.840043 204.659815 C 226.929324 206.099641 216.000483 208.000739 207.000745 212.259264 C 189.449362 219.37932 177.579857 234.560096 177.579857 256.849396 C 177.579857 284.850227 195.579332 299.090339 218.38921 299.090339 C 224.96892 299.11505 231.449785 298.325946 237.830159 296.719733 C 246.829896 293.869734 254.43923 288.650775 263.460383 279.150229 C 268.679342 286.270285 270.109283 289.599677 279.110668 297.149704 C 281.489512 298.090368 283.860118 298.090368 285.749684 296.680195 C 291.459567 291.930746 301.419738 283.380748 306.630459 278.68072 C 309.009302 276.779622 308.539794 273.929623 307.099967 271.570549 C 301.900778 264.920001 296.670288 259.229887 296.670288 246.409833 L 296.670288 203.709266 C 296.670288 185.709791 298.090345 169.06942 284.810667 156.710637 C 273.899947 146.709281 256.809836 142.949918 243.530157 142.949918 L 237.830159 142.949918 C 213.639761 144.350206 188.019421 154.799655 182.319422 184.699936 C 181.319451 188.500484 184.22052 189.910657 186.11997 190.380165 L 212.689212 193.699673 C 215.540858 193.230165 216.959268 190.849674 217.430424 188.500484 C 219.809268 178.049388 228.349381 172.83043 237.830159 171.879881 L 239.739494 171.879881 C 245.429608 171.879881 251.600762 174.260372 254.92027 178.999937 C 258.709286 184.699936 258.239778 192.2895 258.239778 198.940048 Z M 252.999404 259.239772 C 252.632034 259.999222 252.225126 260.735609 251.777034 261.45058 C 251.328942 262.163904 250.842959 262.852516 250.319086 263.513123 C 249.795214 264.175377 249.238393 264.804683 248.64533 265.405984 C 248.052266 266.005637 247.427902 266.570694 246.773885 267.102804 C 246.119868 267.633266 245.437845 268.127486 244.727816 268.585463 C 244.019435 269.041792 243.28799 269.458584 242.533481 269.834191 C 241.778973 270.211445 241.006343 270.545867 240.213944 270.837456 C 239.423193 271.129046 238.617615 271.376156 237.800506 271.580433 C 236.859841 271.580433 235.439784 272.049942 234.009842 272.049942 C 223.580163 272.049942 217.400771 263.979337 217.400771 252.119716 C 217.400771 236.930702 226.400509 229.820531 237.800506 226.489491 C 244.533423 225.105677 251.337179 224.473076 258.210125 224.590041 L 258.210125 230.299924 C 258.249662 241.200759 258.720818 249.739225 252.999404 259.239772 Z M 252.999404 259.239772 " stroke="#ffffff" stroke-width="8" stroke-opacity="1" stroke-miterlimit="4"/></g></svg>